<svg xmlns="http://www.w3.org/2000/svg" width="240" height="150" viewBox="0 0 240 150">
<!--    <path d="M4 75C4 56.1192 16.1778 38.465 37.1834 25.3289C58.1373 12.2252 87.3759 4 120 4C152.612 4 181.851 12.3447 202.81 25.512C223.832 38.719 236 56.3773 236 75C236 93.8808 223.822 111.535 202.817 124.671C181.863 137.775 152.624 146 120 146C87.3759 146 58.1373 137.775 37.1834 124.671C16.1778 111.535 4 93.8808 4 75Z" fill="#FFEB3B" stroke="#37474F" stroke-width="8"/>-->
<!--    <path fill="#37474F" d="M180 119C190 115 198.5 107 205 101.5C214 93 219.5 83 220 73.5C219.5 52.5 195.5 32.5 160 24C185 57 144.5 80 137.5 51L134.5 21.5L127.5 29H120H112.5L105.5 21.5L102.5 51C95.5 80.5 55 57 80 24C44.5 32 20.5 52 20 73C20.5 82.5 26 92.5 35 101C41.5 107 50 115 60 119C43.5 95 75.5 83 90 109C95.5 88 114.5 102.5 120 129C125.5 102.5 144.5 88 150 109C164.5 83 196.5 95 180 119Z"/>-->
    <path fill="#fff" d="M180 119C190 115 198.5 107 205 101.5C214 93 219.5 83 220 73.5C219.5 52.5 195.5 32.5 160 24C185 57 144.5 80 137.5 51L134.5 21.5L127.5 29H120H112.5L105.5 21.5L102.5 51C95.5 80.5 55 57 80 24C44.5 32 20.5 52 20 73C20.5 82.5 26 92.5 35 101C41.5 107 50 115 60 119C43.5 95 75.5 83 90 109C95.5 88 114.5 102.5 120 129C125.5 102.5 144.5 88 150 109C164.5 83 196.5 95 180 119Z"/>
</svg>